<svg width="32" height="32" viewBox="0 0 32 32" fill="none" xmlns="http://www.w3.org/2000/svg">
<path fill-rule="evenodd" clip-rule="evenodd" d="M16.0008 27.1998C22.1864 27.1998 27.2008 22.1854 27.2008 15.9998C27.2008 9.81422 22.1864 4.7998 16.0008 4.7998C9.81519 4.7998 4.80078 9.81422 4.80078 15.9998C4.80078 22.1854 9.81519 27.1998 16.0008 27.1998ZM13.738 13.7371L21.0919 10.9086L18.2635 18.2625L10.9096 21.091L13.738 13.7371ZM17.1321 17.1312C16.5073 17.756 15.4942 17.756 14.8694 17.1312C14.2446 16.5063 14.2446 15.4933 14.8694 14.8684C15.4942 14.2436 16.5073 14.2436 17.1321 14.8684C17.757 15.4933 17.757 16.5063 17.1321 17.1312Z" fill="white" fill-opacity="0.96"/>
</svg>
