<svg width="32" height="32" viewBox="0 0 32 32" fill="none" xmlns="http://www.w3.org/2000/svg">
<path fill-rule="evenodd" clip-rule="evenodd" d="M8.80808 5.6001H4.40039V7.44083H7.35563L10.7525 21.6461C10.0324 22.1031 9.55446 22.9075 9.55446 23.8235C9.55446 25.2468 10.7082 26.4006 12.1315 26.4006C13.3653 26.4006 14.3965 25.5335 14.6493 24.3756H19.9218C20.1745 25.5335 21.2058 26.4006 22.4396 26.4006C23.8628 26.4006 25.0166 25.2468 25.0166 23.8235C25.0166 22.4003 23.8628 21.2465 22.4396 21.2465C21.4858 21.2465 20.653 21.7647 20.2074 22.5348H14.3636C13.9859 21.882 13.33 21.4102 12.558 21.2817L12.1974 19.7738H24.7154L27.2255 8.72938H9.55639L8.80808 5.6001Z" fill="white" fill-opacity="0.64"/>
</svg>
