<svg width="32" height="32" viewBox="0 0 32 32" fill="none" xmlns="http://www.w3.org/2000/svg">
<path fill-rule="evenodd" clip-rule="evenodd" d="M24.4547 19.1149C29.4288 15.2955 24.1621 5.6001 16.5547 5.6001C8.94728 5.6001 6.19072 11.4761 5.72874 14.4141C5.08197 18.5273 6.89911 22.9343 10.4102 24.9909C13.8104 26.9825 17.7251 26.7537 17.7251 24.9909C17.7251 24.2605 17.4237 23.7318 17.1539 23.2586C16.7726 22.5898 16.4544 22.0318 17.1399 21.1715C17.6196 20.5693 18.2887 20.6116 19.1763 20.6678C20.454 20.7486 22.1845 20.8581 24.4547 19.1149ZM11.9996 14.0001C11.9996 14.6628 11.4624 15.2001 10.7996 15.2001C10.1369 15.2001 9.59961 14.6628 9.59961 14.0001C9.59961 13.3374 10.1369 12.8001 10.7996 12.8001C11.4624 12.8001 11.9996 13.3374 11.9996 14.0001ZM13.9996 12.0001C14.6624 12.0001 15.1996 11.4628 15.1996 10.8001C15.1996 10.1374 14.6624 9.6001 13.9996 9.6001C13.3369 9.6001 12.7996 10.1374 12.7996 10.8001C12.7996 11.4628 13.3369 12.0001 13.9996 12.0001ZM19.1996 10.8001C19.1996 11.4628 18.6624 12.0001 17.9996 12.0001C17.3369 12.0001 16.7996 11.4628 16.7996 10.8001C16.7996 10.1374 17.3369 9.6001 17.9996 9.6001C18.6624 9.6001 19.1996 10.1374 19.1996 10.8001ZM21.1996 15.2001C21.8624 15.2001 22.3996 14.6628 22.3996 14.0001C22.3996 13.3374 21.8624 12.8001 21.1996 12.8001C20.5369 12.8001 19.9996 13.3374 19.9996 14.0001C19.9996 14.6628 20.5369 15.2001 21.1996 15.2001Z" fill="white" fill-opacity="0.64"/>
</svg>
